%TF.GenerationSoftware,KiCad,Pcbnew,10.0.3*%
%TF.CreationDate,2026-07-06T10:19:03+03:00*%
%TF.ProjectId,Timer2_timekeeping,54696d65-7232-45f7-9469-6d656b656570,rev?*%
%TF.SameCoordinates,Original*%
%TF.FileFunction,Copper,L1,Top*%
%TF.FilePolarity,Positive*%
%FSLAX46Y46*%
G04 Gerber Fmt 4.6, Leading zero omitted, Abs format (unit mm)*
G04 Created by KiCad (PCBNEW 10.0.3) date 2026-07-06 10:19:03*
%MOMM*%
%LPD*%
G01*
G04 APERTURE LIST*
G04 Aperture macros list*
%AMRoundRect*
0 Rectangle with rounded corners*
0 $1 Rounding radius*
0 $2 $3 $4 $5 $6 $7 $8 $9 X,Y pos of 4 corners*
0 Add a 4 corners polygon primitive as box body*
4,1,4,$2,$3,$4,$5,$6,$7,$8,$9,$2,$3,0*
0 Add four circle primitives for the rounded corners*
1,1,$1+$1,$2,$3*
1,1,$1+$1,$4,$5*
1,1,$1+$1,$6,$7*
1,1,$1+$1,$8,$9*
0 Add four rect primitives between the rounded corners*
20,1,$1+$1,$2,$3,$4,$5,0*
20,1,$1+$1,$4,$5,$6,$7,0*
20,1,$1+$1,$6,$7,$8,$9,0*
20,1,$1+$1,$8,$9,$2,$3,0*%
G04 Aperture macros list end*
%TA.AperFunction,ComponentPad*%
%ADD10C,1.800000*%
%TD*%
%TA.AperFunction,ComponentPad*%
%ADD11R,1.800000X1.800000*%
%TD*%
%TA.AperFunction,ComponentPad*%
%ADD12C,1.600000*%
%TD*%
%TA.AperFunction,ComponentPad*%
%ADD13C,1.700000*%
%TD*%
%TA.AperFunction,ComponentPad*%
%ADD14R,1.700000X1.700000*%
%TD*%
%TA.AperFunction,ComponentPad*%
%ADD15C,2.000000*%
%TD*%
%TA.AperFunction,ComponentPad*%
%ADD16RoundRect,0.250000X-0.550000X-0.550000X0.550000X-0.550000X0.550000X0.550000X-0.550000X0.550000X0*%
%TD*%
%TA.AperFunction,ComponentPad*%
%ADD17C,1.500000*%
%TD*%
%TA.AperFunction,ViaPad*%
%ADD18C,0.600000*%
%TD*%
%TA.AperFunction,Conductor*%
%ADD19C,0.200000*%
%TD*%
G04 APERTURE END LIST*
D10*
%TO.P,D2,2,A_2*%
%TO.N,GND*%
X147500000Y-108500000D03*
D11*
%TO.P,D2,1,K_1*%
%TO.N,Net-(D2-K)*%
X144960000Y-108500000D03*
%TD*%
D10*
%TO.P,D3,2,A_2*%
%TO.N,GND*%
X147500000Y-115970000D03*
D11*
%TO.P,D3,1,K_1*%
%TO.N,Net-(D3-K)*%
X144960000Y-115970000D03*
%TD*%
D12*
%TO.P,R3,2*%
%TO.N,Net-(D2-K)*%
X159170000Y-106790000D03*
%TO.P,R3,1*%
%TO.N,/CPU_ACTIVE_LED*%
X151550000Y-106790000D03*
%TD*%
%TO.P,R4,2*%
%TO.N,Net-(D3-K)*%
X159170000Y-110840000D03*
%TO.P,R4,1*%
%TO.N,/TIMER2_HEARTBEAT_LED*%
X151550000Y-110840000D03*
%TD*%
D10*
%TO.P,D1,2,A_2*%
%TO.N,GND*%
X162625000Y-101415000D03*
D11*
%TO.P,D1,1,K_1*%
%TO.N,Net-(D1-K)*%
X160085000Y-101415000D03*
%TD*%
D13*
%TO.P,J1,2,Pin_2_2*%
%TO.N,GND*%
X163425000Y-111465000D03*
D14*
%TO.P,J1,1,Pin_1_1*%
%TO.N,Net-(J1-Pin_1)*%
X163425000Y-108925000D03*
%TD*%
D15*
%TO.P,SW2,1,1_1*%
%TO.N,/SET_ALARM_BTN*%
X144415000Y-77075000D03*
X150915000Y-77075000D03*
%TO.P,SW2,2,2_2*%
%TO.N,GND*%
X144415000Y-81575000D03*
X150915000Y-81575000D03*
%TD*%
D12*
%TO.P,C1,1*%
%TO.N,GND*%
X154515000Y-68525000D03*
%TO.P,C1,2*%
%TO.N,/TOSC2_32768HZ*%
X159515000Y-68525000D03*
%TD*%
D16*
%TO.P,U1,1,PB0_1*%
%TO.N,/WAKE_LED*%
X125575000Y-68555000D03*
D12*
%TO.P,U1,2,PB1_2*%
%TO.N,/CPU_ACTIVE_LED*%
X125575000Y-71095000D03*
%TO.P,U1,3,PB2_3*%
%TO.N,/TIMER2_HEARTBEAT_LED*%
X125575000Y-73635000D03*
%TO.P,U1,4,PB3_4*%
%TO.N,unconnected-(U1-PB3-Pad4)*%
X125575000Y-76175000D03*
%TO.P,U1,5,PB4_5*%
%TO.N,unconnected-(U1-PB4-Pad5)*%
X125575000Y-78715000D03*
%TO.P,U1,6,PB5_6*%
%TO.N,unconnected-(U1-PB5-Pad6)*%
X125575000Y-81255000D03*
%TO.P,U1,7,PB6_7*%
%TO.N,unconnected-(U1-PB6-Pad7)*%
X125575000Y-83795000D03*
%TO.P,U1,8,PB7_8*%
%TO.N,unconnected-(U1-PB7-Pad8)*%
X125575000Y-86335000D03*
%TO.P,U1,9,~{RESET}_9*%
%TO.N,Net-(U1-~{RESET})*%
X125575000Y-88875000D03*
%TO.P,U1,10,VCC_10*%
%TO.N,VCC*%
X125575000Y-91415000D03*
%TO.P,U1,11,GND_11*%
%TO.N,GND*%
X125575000Y-93955000D03*
%TO.P,U1,12,XTAL2_12*%
%TO.N,unconnected-(U1-XTAL2-Pad12)*%
X125575000Y-96495000D03*
%TO.P,U1,13,XTAL1_13*%
%TO.N,unconnected-(U1-XTAL1-Pad13)*%
X125575000Y-99035000D03*
%TO.P,U1,14,PD0_14*%
%TO.N,unconnected-(U1-PD0-Pad14)*%
X125575000Y-101575000D03*
%TO.P,U1,15,PD1_15*%
%TO.N,Net-(J1-Pin_1)*%
X125575000Y-104115000D03*
%TO.P,U1,16,PD2_16*%
%TO.N,unconnected-(U1-PD2-Pad16)*%
X125575000Y-106655000D03*
%TO.P,U1,17,PD3_17*%
%TO.N,unconnected-(U1-PD3-Pad17)*%
X125575000Y-109195000D03*
%TO.P,U1,18,PD4_18*%
%TO.N,unconnected-(U1-PD4-Pad18)*%
X125575000Y-111735000D03*
%TO.P,U1,19,PD5_19*%
%TO.N,unconnected-(U1-PD5-Pad19)*%
X125575000Y-114275000D03*
%TO.P,U1,20,PD6_20*%
%TO.N,unconnected-(U1-PD6-Pad20)*%
X125575000Y-116815000D03*
%TO.P,U1,21,PD7_21*%
%TO.N,unconnected-(U1-PD7-Pad21)*%
X140815000Y-116815000D03*
%TO.P,U1,22,PC0_22*%
%TO.N,unconnected-(U1-PC0-Pad22)*%
X140815000Y-114275000D03*
%TO.P,U1,23,PC1_23*%
%TO.N,unconnected-(U1-PC1-Pad23)*%
X140815000Y-111735000D03*
%TO.P,U1,24,PC2_24*%
%TO.N,unconnected-(U1-PC2-Pad24)*%
X140815000Y-109195000D03*
%TO.P,U1,25,PC3_25*%
%TO.N,unconnected-(U1-PC3-Pad25)*%
X140815000Y-106655000D03*
%TO.P,U1,26,PC4_26*%
%TO.N,unconnected-(U1-PC4-Pad26)*%
X140815000Y-104115000D03*
%TO.P,U1,27,PC5_27*%
%TO.N,unconnected-(U1-PC5-Pad27)*%
X140815000Y-101575000D03*
%TO.P,U1,28,PC6_28*%
%TO.N,/TOSC1_32768HZ*%
X140815000Y-99035000D03*
%TO.P,U1,29,PC7_29*%
%TO.N,/TOSC2_32768HZ*%
X140815000Y-96495000D03*
%TO.P,U1,30,AVCC_30*%
%TO.N,VCC*%
X140815000Y-93955000D03*
%TO.P,U1,31,GND_31*%
%TO.N,GND*%
X140815000Y-91415000D03*
%TO.P,U1,32,AREF_32*%
%TO.N,Net-(U1-AREF)*%
X140815000Y-88875000D03*
%TO.P,U1,33,PA7_33*%
%TO.N,unconnected-(U1-PA7-Pad33)*%
X140815000Y-86335000D03*
%TO.P,U1,34,PA6_34*%
%TO.N,unconnected-(U1-PA6-Pad34)*%
X140815000Y-83795000D03*
%TO.P,U1,35,PA5_35*%
%TO.N,unconnected-(U1-PA5-Pad35)*%
X140815000Y-81255000D03*
%TO.P,U1,36,PA4_36*%
%TO.N,unconnected-(U1-PA4-Pad36)*%
X140815000Y-78715000D03*
%TO.P,U1,37,PA3_37*%
%TO.N,unconnected-(U1-PA3-Pad37)*%
X140815000Y-76175000D03*
%TO.P,U1,38,PA2_38*%
%TO.N,Net-(U1-PA2)*%
X140815000Y-73635000D03*
%TO.P,U1,39,PA1_39*%
%TO.N,/SET_ALARM_BTN*%
X140815000Y-71095000D03*
%TO.P,U1,40,PA0_40*%
%TO.N,Net-(U1-PA0)*%
X140815000Y-68555000D03*
%TD*%
%TO.P,R2,1*%
%TO.N,VCC*%
X154515000Y-95485000D03*
%TO.P,R2,2*%
%TO.N,Net-(U1-~{RESET})*%
X162135000Y-95485000D03*
%TD*%
%TO.P,C4,1*%
%TO.N,GND*%
X154515000Y-80675000D03*
%TO.P,C4,2*%
%TO.N,VCC*%
X159515000Y-80675000D03*
%TD*%
%TO.P,R1,1*%
%TO.N,/WAKE_LED*%
X154515000Y-91435000D03*
%TO.P,R1,2*%
%TO.N,Net-(D1-K)*%
X162135000Y-91435000D03*
%TD*%
%TO.P,C3,1*%
%TO.N,Net-(U1-AREF)*%
X154515000Y-76625000D03*
%TO.P,C3,2*%
%TO.N,GND*%
X159515000Y-76625000D03*
%TD*%
D15*
%TO.P,SW3,1,1_1*%
%TO.N,Net-(U1-PA2)*%
X144415000Y-85625000D03*
X150915000Y-85625000D03*
%TO.P,SW3,2,2_2*%
%TO.N,GND*%
X144415000Y-90125000D03*
X150915000Y-90125000D03*
%TD*%
D17*
%TO.P,Y1,1,1_1*%
%TO.N,/TOSC2_32768HZ*%
X157055000Y-86055000D03*
%TO.P,Y1,2,2_2*%
%TO.N,/TOSC1_32768HZ*%
X161935000Y-86055000D03*
%TD*%
D15*
%TO.P,SW4,1,1_1*%
%TO.N,GND*%
X144415000Y-94175000D03*
X150915000Y-94175000D03*
%TO.P,SW4,2,2_2*%
%TO.N,Net-(U1-~{RESET})*%
X144415000Y-98675000D03*
X150915000Y-98675000D03*
%TD*%
%TO.P,SW1,1,1_1*%
%TO.N,Net-(U1-PA0)*%
X144415000Y-68525000D03*
X150915000Y-68525000D03*
%TO.P,SW1,2,2_2*%
%TO.N,GND*%
X144415000Y-73025000D03*
X150915000Y-73025000D03*
%TD*%
D12*
%TO.P,C2,1*%
%TO.N,/TOSC1_32768HZ*%
X154515000Y-72575000D03*
%TO.P,C2,2*%
%TO.N,GND*%
X159515000Y-72575000D03*
%TD*%
D18*
%TO.N,GND*%
X153000000Y-87000000D03*
%TO.N,/TOSC2_32768HZ*%
X152738504Y-89261497D03*
%TO.N,/TOSC1_32768HZ*%
X153565000Y-96626379D03*
X157170735Y-77170735D03*
%TO.N,VCC*%
X142999625Y-92015000D03*
%TO.N,/WAKE_LED*%
X142500000Y-87000000D03*
%TO.N,Net-(U1-~{RESET})*%
X153565000Y-99000000D03*
%TO.N,Net-(U1-PA2)*%
X148000000Y-79675000D03*
%TD*%
%TO.N,GND*%
D19*
X147500000Y-115970000D02*
X158680000Y-115970000D01*
X158680000Y-115970000D02*
X164575000Y-110075000D01*
X164575000Y-110075000D02*
X164575000Y-107775000D01*
X164575000Y-107775000D02*
X162490000Y-105690000D01*
X162490000Y-105690000D02*
X150310000Y-105690000D01*
X150310000Y-105690000D02*
X147500000Y-108500000D01*
%TO.N,Net-(D1-K)*%
X160085000Y-101415000D02*
X163235000Y-98265000D01*
X163235000Y-98265000D02*
X163235000Y-92535000D01*
X163235000Y-92535000D02*
X162135000Y-91435000D01*
%TO.N,GND*%
X151545000Y-104455000D02*
X152965000Y-103035000D01*
X152965000Y-103035000D02*
X152965000Y-96225000D01*
X152965000Y-96225000D02*
X150915000Y-94175000D01*
X163425000Y-111465000D02*
X164575000Y-110315000D01*
X164575000Y-110315000D02*
X164575000Y-107775000D01*
X164575000Y-107775000D02*
X161255000Y-104455000D01*
X161255000Y-104455000D02*
X159585000Y-104455000D01*
%TO.N,Net-(J1-Pin_1)*%
X125575000Y-104115000D02*
X131844365Y-110384365D01*
X131844365Y-110384365D02*
X150450000Y-110384365D01*
X150450000Y-110384365D02*
X151909365Y-108925000D01*
X151909365Y-108925000D02*
X163425000Y-108925000D01*
%TO.N,/CPU_ACTIVE_LED*%
X133935635Y-105500000D02*
X144500000Y-105500000D01*
X144500000Y-105500000D02*
X146300000Y-107300000D01*
X146300000Y-107300000D02*
X146300000Y-108997057D01*
X146300000Y-108997057D02*
X147002943Y-109700000D01*
X147002943Y-109700000D02*
X148640000Y-109700000D01*
X148640000Y-109700000D02*
X151550000Y-106790000D01*
%TO.N,GND*%
X162625000Y-101415000D02*
X159585000Y-104455000D01*
X159585000Y-104455000D02*
X151545000Y-104455000D01*
X151545000Y-104455000D02*
X147500000Y-108500000D01*
%TO.N,/CPU_ACTIVE_LED*%
X125119365Y-97595000D02*
X126030635Y-97595000D01*
X124075000Y-96550635D02*
X125119365Y-97595000D01*
X126030635Y-97595000D02*
X133935635Y-105500000D01*
X124075000Y-72595000D02*
X124075000Y-96550635D01*
X125575000Y-71095000D02*
X124075000Y-72595000D01*
%TO.N,GND*%
X144415000Y-90125000D02*
X143125000Y-91415000D01*
X154515000Y-68525000D02*
X150915000Y-72125000D01*
X150915000Y-72125000D02*
X150915000Y-73025000D01*
X144415000Y-81575000D02*
X150915000Y-81575000D01*
X125575000Y-93955000D02*
X138275000Y-93955000D01*
X158565000Y-76625000D02*
X159515000Y-76625000D01*
X153000000Y-83660000D02*
X153000000Y-87000000D01*
X150915000Y-90125000D02*
X144415000Y-90125000D01*
X150915000Y-81575000D02*
X153615000Y-81575000D01*
X138275000Y-93955000D02*
X140815000Y-91415000D01*
X144415000Y-73025000D02*
X150915000Y-73025000D01*
X143125000Y-91415000D02*
X140815000Y-91415000D01*
X144415000Y-90125000D02*
X144415000Y-94175000D01*
X150915000Y-81575000D02*
X153000000Y-83660000D01*
X159515000Y-76625000D02*
X159515000Y-72575000D01*
X158565000Y-72575000D02*
X154515000Y-68525000D01*
X150915000Y-94175000D02*
X150915000Y-90125000D01*
X154515000Y-80675000D02*
X158565000Y-76625000D01*
X153615000Y-81575000D02*
X154515000Y-80675000D01*
X159515000Y-72575000D02*
X158565000Y-72575000D01*
%TO.N,/TOSC2_32768HZ*%
X159515000Y-68525000D02*
X160615000Y-69625000D01*
X155945001Y-86055000D02*
X152738504Y-89261497D01*
X160615000Y-78019365D02*
X157055000Y-81579365D01*
X157055000Y-86055000D02*
X155945001Y-86055000D01*
X160615000Y-69625000D02*
X160615000Y-78019365D01*
X157055000Y-81579365D02*
X157055000Y-86055000D01*
%TO.N,/TOSC1_32768HZ*%
X154515000Y-74515000D02*
X157170735Y-77170735D01*
X161935000Y-89620635D02*
X154929256Y-96626379D01*
X154515000Y-72575000D02*
X154515000Y-74515000D01*
X161935000Y-86055000D02*
X161935000Y-89620635D01*
X154929256Y-96626379D02*
X153565000Y-96626379D01*
%TO.N,Net-(U1-AREF)*%
X143803477Y-88075001D02*
X141614999Y-88075001D01*
X145715000Y-86163478D02*
X143803477Y-88075001D01*
X143876522Y-80275000D02*
X143115000Y-81036522D01*
X143115000Y-81036522D02*
X143115000Y-82486522D01*
X143115000Y-82486522D02*
X145715000Y-85086522D01*
X145715000Y-85086522D02*
X145715000Y-86163478D01*
X154515000Y-76625000D02*
X150865000Y-80275000D01*
X141614999Y-88075001D02*
X140815000Y-88875000D01*
X150865000Y-80275000D02*
X143876522Y-80275000D01*
%TO.N,VCC*%
X125575000Y-91415000D02*
X126675000Y-90315000D01*
X141270635Y-90315000D02*
X142760635Y-88825000D01*
X159515000Y-90485000D02*
X159515000Y-80675000D01*
X126675000Y-90315000D02*
X141270635Y-90315000D01*
X153415000Y-90786522D02*
X153415000Y-94385000D01*
X151453478Y-88825000D02*
X153415000Y-90786522D01*
X142755000Y-92015000D02*
X142999625Y-92015000D01*
X140815000Y-93955000D02*
X142755000Y-92015000D01*
X154515000Y-95485000D02*
X159515000Y-90485000D01*
X153415000Y-94385000D02*
X154515000Y-95485000D01*
X142760635Y-88825000D02*
X151453478Y-88825000D01*
%TO.N,/WAKE_LED*%
X139715000Y-84250635D02*
X140359365Y-84895000D01*
X125575000Y-68555000D02*
X139715000Y-82695000D01*
X139715000Y-82695000D02*
X139715000Y-84250635D01*
X140930635Y-84895000D02*
X142500000Y-86464365D01*
X142500000Y-86464365D02*
X142500000Y-87000000D01*
X140359365Y-84895000D02*
X140930635Y-84895000D01*
%TO.N,Net-(U1-~{RESET})*%
X157080000Y-95485000D02*
X153565000Y-99000000D01*
X125575000Y-88875000D02*
X124475000Y-89975000D01*
X124475000Y-89975000D02*
X124475000Y-94410635D01*
X143335000Y-97595000D02*
X144415000Y-98675000D01*
X162135000Y-95485000D02*
X157080000Y-95485000D01*
X138159365Y-95395000D02*
X140359365Y-97595000D01*
X125459365Y-95395000D02*
X138159365Y-95395000D01*
X150915000Y-98675000D02*
X144415000Y-98675000D01*
X124475000Y-94410635D02*
X125459365Y-95395000D01*
X140359365Y-97595000D02*
X143335000Y-97595000D01*
%TO.N,Net-(U1-PA0)*%
X140815000Y-68555000D02*
X144385000Y-68555000D01*
X140815000Y-68555000D02*
X150885000Y-68555000D01*
X144415000Y-68525000D02*
X150915000Y-68525000D01*
X144385000Y-68555000D02*
X144415000Y-68525000D01*
X150885000Y-68555000D02*
X150915000Y-68525000D01*
%TO.N,/SET_ALARM_BTN*%
X140815000Y-71815000D02*
X144415000Y-75415000D01*
X144415000Y-77075000D02*
X150915000Y-77075000D01*
X140815000Y-71095000D02*
X140815000Y-71815000D01*
X144415000Y-75415000D02*
X144415000Y-77075000D01*
%TO.N,Net-(U1-PA2)*%
X142715000Y-80870836D02*
X143910836Y-79675000D01*
X143910836Y-79675000D02*
X148000000Y-79675000D01*
X141915000Y-74735000D02*
X141915000Y-83125000D01*
X141915000Y-83125000D02*
X144415000Y-85625000D01*
X140815000Y-73635000D02*
X141915000Y-74735000D01*
X144415000Y-85625000D02*
X142715000Y-83925000D01*
X142715000Y-83925000D02*
X142715000Y-80870836D01*
%TD*%
M02*
