M48
; DRILL file KiCad 10.0.3 date 2026-07-01T10:10:46
; FORMAT={-:-/ absolute / metric / decimal}
; #@! TF.CreationDate,2026-07-01T10:10:46+03:00
; #@! TF.GenerationSoftware,Kicad,Pcbnew,10.0.3
; #@! TF.FileFunction,Plated,1,2,PTH
FMAT,2
METRIC
; #@! TA.AperFunction,Plated,PTH,ViaDrill
T1C0.300
; #@! TA.AperFunction,Plated,PTH,ComponentDrill
T2C0.800
; #@! TA.AperFunction,Plated,PTH,ComponentDrill
T3C0.900
; #@! TA.AperFunction,Plated,PTH,ComponentDrill
T4C1.000
; #@! TA.AperFunction,Plated,PTH,ComponentDrill
T5C1.100
%
G90
G05
T1
X142.5Y-87.0
X143.0Y-92.015
X148.0Y-79.675
X152.739Y-89.261
X153.0Y-87.0
X153.565Y-96.626
X153.565Y-99.0
X157.171Y-77.171
T2
X125.575Y-68.555
X125.575Y-71.095
X125.575Y-73.635
X125.575Y-76.175
X125.575Y-78.715
X125.575Y-81.255
X125.575Y-83.795
X125.575Y-86.335
X125.575Y-88.875
X125.575Y-91.415
X125.575Y-93.955
X125.575Y-96.495
X125.575Y-99.035
X125.575Y-101.575
X125.575Y-104.115
X125.575Y-106.655
X125.575Y-109.195
X125.575Y-111.735
X125.575Y-114.275
X125.575Y-116.815
X140.815Y-68.555
X140.815Y-71.095
X140.815Y-73.635
X140.815Y-76.175
X140.815Y-78.715
X140.815Y-81.255
X140.815Y-83.795
X140.815Y-86.335
X140.815Y-88.875
X140.815Y-91.415
X140.815Y-93.955
X140.815Y-96.495
X140.815Y-99.035
X140.815Y-101.575
X140.815Y-104.115
X140.815Y-106.655
X140.815Y-109.195
X140.815Y-111.735
X140.815Y-114.275
X140.815Y-116.815
X154.515Y-68.525
X154.515Y-72.575
X154.515Y-76.625
X154.515Y-80.675
X154.515Y-91.435
X154.515Y-95.485
X157.055Y-86.055
X159.515Y-68.525
X159.515Y-72.575
X159.515Y-76.625
X159.515Y-80.675
X161.935Y-86.055
X162.135Y-91.435
X162.135Y-95.485
T3
X158.405Y-104.435
X160.945Y-104.435
T4
X145.365Y-107.475
X152.965Y-107.475
X158.235Y-110.465
X158.235Y-113.005
T5
X144.415Y-68.525
X144.415Y-73.025
X144.415Y-77.075
X144.415Y-81.575
X144.415Y-85.625
X144.415Y-90.125
X144.415Y-94.175
X144.415Y-98.675
X150.915Y-68.525
X150.915Y-73.025
X150.915Y-77.075
X150.915Y-81.575
X150.915Y-85.625
X150.915Y-90.125
X150.915Y-94.175
X150.915Y-98.675
M30
