%TF.GenerationSoftware,KiCad,Pcbnew,10.0.3*%
%TF.CreationDate,2026-07-06T10:19:04+03:00*%
%TF.ProjectId,Timer2_timekeeping,54696d65-7232-45f7-9469-6d656b656570,rev?*%
%TF.SameCoordinates,Original*%
%TF.FileFunction,Legend,Top*%
%TF.FilePolarity,Positive*%
%FSLAX46Y46*%
G04 Gerber Fmt 4.6, Leading zero omitted, Abs format (unit mm)*
G04 Created by KiCad (PCBNEW 10.0.3) date 2026-07-06 10:19:04*
%MOMM*%
%LPD*%
G01*
G04 APERTURE LIST*
%ADD10C,0.150000*%
%ADD11C,0.120000*%
G04 APERTURE END LIST*
D10*
X145491905Y-104994819D02*
X145491905Y-103994819D01*
X145491905Y-103994819D02*
X145730000Y-103994819D01*
X145730000Y-103994819D02*
X145872857Y-104042438D01*
X145872857Y-104042438D02*
X145968095Y-104137676D01*
X145968095Y-104137676D02*
X146015714Y-104232914D01*
X146015714Y-104232914D02*
X146063333Y-104423390D01*
X146063333Y-104423390D02*
X146063333Y-104566247D01*
X146063333Y-104566247D02*
X146015714Y-104756723D01*
X146015714Y-104756723D02*
X145968095Y-104851961D01*
X145968095Y-104851961D02*
X145872857Y-104947200D01*
X145872857Y-104947200D02*
X145730000Y-104994819D01*
X145730000Y-104994819D02*
X145491905Y-104994819D01*
X146444286Y-104090057D02*
X146491905Y-104042438D01*
X146491905Y-104042438D02*
X146587143Y-103994819D01*
X146587143Y-103994819D02*
X146825238Y-103994819D01*
X146825238Y-103994819D02*
X146920476Y-104042438D01*
X146920476Y-104042438D02*
X146968095Y-104090057D01*
X146968095Y-104090057D02*
X147015714Y-104185295D01*
X147015714Y-104185295D02*
X147015714Y-104280533D01*
X147015714Y-104280533D02*
X146968095Y-104423390D01*
X146968095Y-104423390D02*
X146396667Y-104994819D01*
X146396667Y-104994819D02*
X147015714Y-104994819D01*
X145491905Y-112464819D02*
X145491905Y-111464819D01*
X145491905Y-111464819D02*
X145730000Y-111464819D01*
X145730000Y-111464819D02*
X145872857Y-111512438D01*
X145872857Y-111512438D02*
X145968095Y-111607676D01*
X145968095Y-111607676D02*
X146015714Y-111702914D01*
X146015714Y-111702914D02*
X146063333Y-111893390D01*
X146063333Y-111893390D02*
X146063333Y-112036247D01*
X146063333Y-112036247D02*
X146015714Y-112226723D01*
X146015714Y-112226723D02*
X145968095Y-112321961D01*
X145968095Y-112321961D02*
X145872857Y-112417200D01*
X145872857Y-112417200D02*
X145730000Y-112464819D01*
X145730000Y-112464819D02*
X145491905Y-112464819D01*
X146396667Y-111464819D02*
X147015714Y-111464819D01*
X147015714Y-111464819D02*
X146682381Y-111845771D01*
X146682381Y-111845771D02*
X146825238Y-111845771D01*
X146825238Y-111845771D02*
X146920476Y-111893390D01*
X146920476Y-111893390D02*
X146968095Y-111941009D01*
X146968095Y-111941009D02*
X147015714Y-112036247D01*
X147015714Y-112036247D02*
X147015714Y-112274342D01*
X147015714Y-112274342D02*
X146968095Y-112369580D01*
X146968095Y-112369580D02*
X146920476Y-112417200D01*
X146920476Y-112417200D02*
X146825238Y-112464819D01*
X146825238Y-112464819D02*
X146539524Y-112464819D01*
X146539524Y-112464819D02*
X146444286Y-112417200D01*
X146444286Y-112417200D02*
X146396667Y-112369580D01*
X155193333Y-104874819D02*
X154860000Y-104398628D01*
X154621905Y-104874819D02*
X154621905Y-103874819D01*
X154621905Y-103874819D02*
X155002857Y-103874819D01*
X155002857Y-103874819D02*
X155098095Y-103922438D01*
X155098095Y-103922438D02*
X155145714Y-103970057D01*
X155145714Y-103970057D02*
X155193333Y-104065295D01*
X155193333Y-104065295D02*
X155193333Y-104208152D01*
X155193333Y-104208152D02*
X155145714Y-104303390D01*
X155145714Y-104303390D02*
X155098095Y-104351009D01*
X155098095Y-104351009D02*
X155002857Y-104398628D01*
X155002857Y-104398628D02*
X154621905Y-104398628D01*
X155526667Y-103874819D02*
X156145714Y-103874819D01*
X156145714Y-103874819D02*
X155812381Y-104255771D01*
X155812381Y-104255771D02*
X155955238Y-104255771D01*
X155955238Y-104255771D02*
X156050476Y-104303390D01*
X156050476Y-104303390D02*
X156098095Y-104351009D01*
X156098095Y-104351009D02*
X156145714Y-104446247D01*
X156145714Y-104446247D02*
X156145714Y-104684342D01*
X156145714Y-104684342D02*
X156098095Y-104779580D01*
X156098095Y-104779580D02*
X156050476Y-104827200D01*
X156050476Y-104827200D02*
X155955238Y-104874819D01*
X155955238Y-104874819D02*
X155669524Y-104874819D01*
X155669524Y-104874819D02*
X155574286Y-104827200D01*
X155574286Y-104827200D02*
X155526667Y-104779580D01*
X155193333Y-108924819D02*
X154860000Y-108448628D01*
X154621905Y-108924819D02*
X154621905Y-107924819D01*
X154621905Y-107924819D02*
X155002857Y-107924819D01*
X155002857Y-107924819D02*
X155098095Y-107972438D01*
X155098095Y-107972438D02*
X155145714Y-108020057D01*
X155145714Y-108020057D02*
X155193333Y-108115295D01*
X155193333Y-108115295D02*
X155193333Y-108258152D01*
X155193333Y-108258152D02*
X155145714Y-108353390D01*
X155145714Y-108353390D02*
X155098095Y-108401009D01*
X155098095Y-108401009D02*
X155002857Y-108448628D01*
X155002857Y-108448628D02*
X154621905Y-108448628D01*
X156050476Y-108258152D02*
X156050476Y-108924819D01*
X155812381Y-107877200D02*
X155574286Y-108591485D01*
X155574286Y-108591485D02*
X156193333Y-108591485D01*
X160616905Y-97909819D02*
X160616905Y-96909819D01*
X160616905Y-96909819D02*
X160855000Y-96909819D01*
X160855000Y-96909819D02*
X160997857Y-96957438D01*
X160997857Y-96957438D02*
X161093095Y-97052676D01*
X161093095Y-97052676D02*
X161140714Y-97147914D01*
X161140714Y-97147914D02*
X161188333Y-97338390D01*
X161188333Y-97338390D02*
X161188333Y-97481247D01*
X161188333Y-97481247D02*
X161140714Y-97671723D01*
X161140714Y-97671723D02*
X161093095Y-97766961D01*
X161093095Y-97766961D02*
X160997857Y-97862200D01*
X160997857Y-97862200D02*
X160855000Y-97909819D01*
X160855000Y-97909819D02*
X160616905Y-97909819D01*
X162140714Y-97909819D02*
X161569286Y-97909819D01*
X161855000Y-97909819D02*
X161855000Y-96909819D01*
X161855000Y-96909819D02*
X161759762Y-97052676D01*
X161759762Y-97052676D02*
X161664524Y-97147914D01*
X161664524Y-97147914D02*
X161569286Y-97195533D01*
X164771666Y-102979819D02*
X164771666Y-103694104D01*
X164771666Y-103694104D02*
X164724047Y-103836961D01*
X164724047Y-103836961D02*
X164628809Y-103932200D01*
X164628809Y-103932200D02*
X164485952Y-103979819D01*
X164485952Y-103979819D02*
X164390714Y-103979819D01*
X165771666Y-103979819D02*
X165200238Y-103979819D01*
X165485952Y-103979819D02*
X165485952Y-102979819D01*
X165485952Y-102979819D02*
X165390714Y-103122676D01*
X165390714Y-103122676D02*
X165295476Y-103217914D01*
X165295476Y-103217914D02*
X165200238Y-103265533D01*
X146331667Y-75482200D02*
X146474524Y-75529819D01*
X146474524Y-75529819D02*
X146712619Y-75529819D01*
X146712619Y-75529819D02*
X146807857Y-75482200D01*
X146807857Y-75482200D02*
X146855476Y-75434580D01*
X146855476Y-75434580D02*
X146903095Y-75339342D01*
X146903095Y-75339342D02*
X146903095Y-75244104D01*
X146903095Y-75244104D02*
X146855476Y-75148866D01*
X146855476Y-75148866D02*
X146807857Y-75101247D01*
X146807857Y-75101247D02*
X146712619Y-75053628D01*
X146712619Y-75053628D02*
X146522143Y-75006009D01*
X146522143Y-75006009D02*
X146426905Y-74958390D01*
X146426905Y-74958390D02*
X146379286Y-74910771D01*
X146379286Y-74910771D02*
X146331667Y-74815533D01*
X146331667Y-74815533D02*
X146331667Y-74720295D01*
X146331667Y-74720295D02*
X146379286Y-74625057D01*
X146379286Y-74625057D02*
X146426905Y-74577438D01*
X146426905Y-74577438D02*
X146522143Y-74529819D01*
X146522143Y-74529819D02*
X146760238Y-74529819D01*
X146760238Y-74529819D02*
X146903095Y-74577438D01*
X147236429Y-74529819D02*
X147474524Y-75529819D01*
X147474524Y-75529819D02*
X147665000Y-74815533D01*
X147665000Y-74815533D02*
X147855476Y-75529819D01*
X147855476Y-75529819D02*
X148093572Y-74529819D01*
X148426905Y-74625057D02*
X148474524Y-74577438D01*
X148474524Y-74577438D02*
X148569762Y-74529819D01*
X148569762Y-74529819D02*
X148807857Y-74529819D01*
X148807857Y-74529819D02*
X148903095Y-74577438D01*
X148903095Y-74577438D02*
X148950714Y-74625057D01*
X148950714Y-74625057D02*
X148998333Y-74720295D01*
X148998333Y-74720295D02*
X148998333Y-74815533D01*
X148998333Y-74815533D02*
X148950714Y-74958390D01*
X148950714Y-74958390D02*
X148379286Y-75529819D01*
X148379286Y-75529819D02*
X148998333Y-75529819D01*
X156848333Y-66384580D02*
X156800714Y-66432200D01*
X156800714Y-66432200D02*
X156657857Y-66479819D01*
X156657857Y-66479819D02*
X156562619Y-66479819D01*
X156562619Y-66479819D02*
X156419762Y-66432200D01*
X156419762Y-66432200D02*
X156324524Y-66336961D01*
X156324524Y-66336961D02*
X156276905Y-66241723D01*
X156276905Y-66241723D02*
X156229286Y-66051247D01*
X156229286Y-66051247D02*
X156229286Y-65908390D01*
X156229286Y-65908390D02*
X156276905Y-65717914D01*
X156276905Y-65717914D02*
X156324524Y-65622676D01*
X156324524Y-65622676D02*
X156419762Y-65527438D01*
X156419762Y-65527438D02*
X156562619Y-65479819D01*
X156562619Y-65479819D02*
X156657857Y-65479819D01*
X156657857Y-65479819D02*
X156800714Y-65527438D01*
X156800714Y-65527438D02*
X156848333Y-65575057D01*
X157800714Y-66479819D02*
X157229286Y-66479819D01*
X157515000Y-66479819D02*
X157515000Y-65479819D01*
X157515000Y-65479819D02*
X157419762Y-65622676D01*
X157419762Y-65622676D02*
X157324524Y-65717914D01*
X157324524Y-65717914D02*
X157229286Y-65765533D01*
X132433095Y-65679819D02*
X132433095Y-66489342D01*
X132433095Y-66489342D02*
X132480714Y-66584580D01*
X132480714Y-66584580D02*
X132528333Y-66632200D01*
X132528333Y-66632200D02*
X132623571Y-66679819D01*
X132623571Y-66679819D02*
X132814047Y-66679819D01*
X132814047Y-66679819D02*
X132909285Y-66632200D01*
X132909285Y-66632200D02*
X132956904Y-66584580D01*
X132956904Y-66584580D02*
X133004523Y-66489342D01*
X133004523Y-66489342D02*
X133004523Y-65679819D01*
X134004523Y-66679819D02*
X133433095Y-66679819D01*
X133718809Y-66679819D02*
X133718809Y-65679819D01*
X133718809Y-65679819D02*
X133623571Y-65822676D01*
X133623571Y-65822676D02*
X133528333Y-65917914D01*
X133528333Y-65917914D02*
X133433095Y-65965533D01*
X158158333Y-93569819D02*
X157825000Y-93093628D01*
X157586905Y-93569819D02*
X157586905Y-92569819D01*
X157586905Y-92569819D02*
X157967857Y-92569819D01*
X157967857Y-92569819D02*
X158063095Y-92617438D01*
X158063095Y-92617438D02*
X158110714Y-92665057D01*
X158110714Y-92665057D02*
X158158333Y-92760295D01*
X158158333Y-92760295D02*
X158158333Y-92903152D01*
X158158333Y-92903152D02*
X158110714Y-92998390D01*
X158110714Y-92998390D02*
X158063095Y-93046009D01*
X158063095Y-93046009D02*
X157967857Y-93093628D01*
X157967857Y-93093628D02*
X157586905Y-93093628D01*
X158539286Y-92665057D02*
X158586905Y-92617438D01*
X158586905Y-92617438D02*
X158682143Y-92569819D01*
X158682143Y-92569819D02*
X158920238Y-92569819D01*
X158920238Y-92569819D02*
X159015476Y-92617438D01*
X159015476Y-92617438D02*
X159063095Y-92665057D01*
X159063095Y-92665057D02*
X159110714Y-92760295D01*
X159110714Y-92760295D02*
X159110714Y-92855533D01*
X159110714Y-92855533D02*
X159063095Y-92998390D01*
X159063095Y-92998390D02*
X158491667Y-93569819D01*
X158491667Y-93569819D02*
X159110714Y-93569819D01*
X156848333Y-78534580D02*
X156800714Y-78582200D01*
X156800714Y-78582200D02*
X156657857Y-78629819D01*
X156657857Y-78629819D02*
X156562619Y-78629819D01*
X156562619Y-78629819D02*
X156419762Y-78582200D01*
X156419762Y-78582200D02*
X156324524Y-78486961D01*
X156324524Y-78486961D02*
X156276905Y-78391723D01*
X156276905Y-78391723D02*
X156229286Y-78201247D01*
X156229286Y-78201247D02*
X156229286Y-78058390D01*
X156229286Y-78058390D02*
X156276905Y-77867914D01*
X156276905Y-77867914D02*
X156324524Y-77772676D01*
X156324524Y-77772676D02*
X156419762Y-77677438D01*
X156419762Y-77677438D02*
X156562619Y-77629819D01*
X156562619Y-77629819D02*
X156657857Y-77629819D01*
X156657857Y-77629819D02*
X156800714Y-77677438D01*
X156800714Y-77677438D02*
X156848333Y-77725057D01*
X157705476Y-77963152D02*
X157705476Y-78629819D01*
X157467381Y-77582200D02*
X157229286Y-78296485D01*
X157229286Y-78296485D02*
X157848333Y-78296485D01*
X158158333Y-89519819D02*
X157825000Y-89043628D01*
X157586905Y-89519819D02*
X157586905Y-88519819D01*
X157586905Y-88519819D02*
X157967857Y-88519819D01*
X157967857Y-88519819D02*
X158063095Y-88567438D01*
X158063095Y-88567438D02*
X158110714Y-88615057D01*
X158110714Y-88615057D02*
X158158333Y-88710295D01*
X158158333Y-88710295D02*
X158158333Y-88853152D01*
X158158333Y-88853152D02*
X158110714Y-88948390D01*
X158110714Y-88948390D02*
X158063095Y-88996009D01*
X158063095Y-88996009D02*
X157967857Y-89043628D01*
X157967857Y-89043628D02*
X157586905Y-89043628D01*
X159110714Y-89519819D02*
X158539286Y-89519819D01*
X158825000Y-89519819D02*
X158825000Y-88519819D01*
X158825000Y-88519819D02*
X158729762Y-88662676D01*
X158729762Y-88662676D02*
X158634524Y-88757914D01*
X158634524Y-88757914D02*
X158539286Y-88805533D01*
X156848333Y-74484580D02*
X156800714Y-74532200D01*
X156800714Y-74532200D02*
X156657857Y-74579819D01*
X156657857Y-74579819D02*
X156562619Y-74579819D01*
X156562619Y-74579819D02*
X156419762Y-74532200D01*
X156419762Y-74532200D02*
X156324524Y-74436961D01*
X156324524Y-74436961D02*
X156276905Y-74341723D01*
X156276905Y-74341723D02*
X156229286Y-74151247D01*
X156229286Y-74151247D02*
X156229286Y-74008390D01*
X156229286Y-74008390D02*
X156276905Y-73817914D01*
X156276905Y-73817914D02*
X156324524Y-73722676D01*
X156324524Y-73722676D02*
X156419762Y-73627438D01*
X156419762Y-73627438D02*
X156562619Y-73579819D01*
X156562619Y-73579819D02*
X156657857Y-73579819D01*
X156657857Y-73579819D02*
X156800714Y-73627438D01*
X156800714Y-73627438D02*
X156848333Y-73675057D01*
X157181667Y-73579819D02*
X157800714Y-73579819D01*
X157800714Y-73579819D02*
X157467381Y-73960771D01*
X157467381Y-73960771D02*
X157610238Y-73960771D01*
X157610238Y-73960771D02*
X157705476Y-74008390D01*
X157705476Y-74008390D02*
X157753095Y-74056009D01*
X157753095Y-74056009D02*
X157800714Y-74151247D01*
X157800714Y-74151247D02*
X157800714Y-74389342D01*
X157800714Y-74389342D02*
X157753095Y-74484580D01*
X157753095Y-74484580D02*
X157705476Y-74532200D01*
X157705476Y-74532200D02*
X157610238Y-74579819D01*
X157610238Y-74579819D02*
X157324524Y-74579819D01*
X157324524Y-74579819D02*
X157229286Y-74532200D01*
X157229286Y-74532200D02*
X157181667Y-74484580D01*
X146331667Y-84032200D02*
X146474524Y-84079819D01*
X146474524Y-84079819D02*
X146712619Y-84079819D01*
X146712619Y-84079819D02*
X146807857Y-84032200D01*
X146807857Y-84032200D02*
X146855476Y-83984580D01*
X146855476Y-83984580D02*
X146903095Y-83889342D01*
X146903095Y-83889342D02*
X146903095Y-83794104D01*
X146903095Y-83794104D02*
X146855476Y-83698866D01*
X146855476Y-83698866D02*
X146807857Y-83651247D01*
X146807857Y-83651247D02*
X146712619Y-83603628D01*
X146712619Y-83603628D02*
X146522143Y-83556009D01*
X146522143Y-83556009D02*
X146426905Y-83508390D01*
X146426905Y-83508390D02*
X146379286Y-83460771D01*
X146379286Y-83460771D02*
X146331667Y-83365533D01*
X146331667Y-83365533D02*
X146331667Y-83270295D01*
X146331667Y-83270295D02*
X146379286Y-83175057D01*
X146379286Y-83175057D02*
X146426905Y-83127438D01*
X146426905Y-83127438D02*
X146522143Y-83079819D01*
X146522143Y-83079819D02*
X146760238Y-83079819D01*
X146760238Y-83079819D02*
X146903095Y-83127438D01*
X147236429Y-83079819D02*
X147474524Y-84079819D01*
X147474524Y-84079819D02*
X147665000Y-83365533D01*
X147665000Y-83365533D02*
X147855476Y-84079819D01*
X147855476Y-84079819D02*
X148093572Y-83079819D01*
X148379286Y-83079819D02*
X148998333Y-83079819D01*
X148998333Y-83079819D02*
X148665000Y-83460771D01*
X148665000Y-83460771D02*
X148807857Y-83460771D01*
X148807857Y-83460771D02*
X148903095Y-83508390D01*
X148903095Y-83508390D02*
X148950714Y-83556009D01*
X148950714Y-83556009D02*
X148998333Y-83651247D01*
X148998333Y-83651247D02*
X148998333Y-83889342D01*
X148998333Y-83889342D02*
X148950714Y-83984580D01*
X148950714Y-83984580D02*
X148903095Y-84032200D01*
X148903095Y-84032200D02*
X148807857Y-84079819D01*
X148807857Y-84079819D02*
X148522143Y-84079819D01*
X148522143Y-84079819D02*
X148426905Y-84032200D01*
X148426905Y-84032200D02*
X148379286Y-83984580D01*
X159018809Y-82513628D02*
X159018809Y-82989819D01*
X158685476Y-81989819D02*
X159018809Y-82513628D01*
X159018809Y-82513628D02*
X159352142Y-81989819D01*
X160209285Y-82989819D02*
X159637857Y-82989819D01*
X159923571Y-82989819D02*
X159923571Y-81989819D01*
X159923571Y-81989819D02*
X159828333Y-82132676D01*
X159828333Y-82132676D02*
X159733095Y-82227914D01*
X159733095Y-82227914D02*
X159637857Y-82275533D01*
X146331667Y-92582200D02*
X146474524Y-92629819D01*
X146474524Y-92629819D02*
X146712619Y-92629819D01*
X146712619Y-92629819D02*
X146807857Y-92582200D01*
X146807857Y-92582200D02*
X146855476Y-92534580D01*
X146855476Y-92534580D02*
X146903095Y-92439342D01*
X146903095Y-92439342D02*
X146903095Y-92344104D01*
X146903095Y-92344104D02*
X146855476Y-92248866D01*
X146855476Y-92248866D02*
X146807857Y-92201247D01*
X146807857Y-92201247D02*
X146712619Y-92153628D01*
X146712619Y-92153628D02*
X146522143Y-92106009D01*
X146522143Y-92106009D02*
X146426905Y-92058390D01*
X146426905Y-92058390D02*
X146379286Y-92010771D01*
X146379286Y-92010771D02*
X146331667Y-91915533D01*
X146331667Y-91915533D02*
X146331667Y-91820295D01*
X146331667Y-91820295D02*
X146379286Y-91725057D01*
X146379286Y-91725057D02*
X146426905Y-91677438D01*
X146426905Y-91677438D02*
X146522143Y-91629819D01*
X146522143Y-91629819D02*
X146760238Y-91629819D01*
X146760238Y-91629819D02*
X146903095Y-91677438D01*
X147236429Y-91629819D02*
X147474524Y-92629819D01*
X147474524Y-92629819D02*
X147665000Y-91915533D01*
X147665000Y-91915533D02*
X147855476Y-92629819D01*
X147855476Y-92629819D02*
X148093572Y-91629819D01*
X148903095Y-91963152D02*
X148903095Y-92629819D01*
X148665000Y-91582200D02*
X148426905Y-92296485D01*
X148426905Y-92296485D02*
X149045952Y-92296485D01*
X146331667Y-66932200D02*
X146474524Y-66979819D01*
X146474524Y-66979819D02*
X146712619Y-66979819D01*
X146712619Y-66979819D02*
X146807857Y-66932200D01*
X146807857Y-66932200D02*
X146855476Y-66884580D01*
X146855476Y-66884580D02*
X146903095Y-66789342D01*
X146903095Y-66789342D02*
X146903095Y-66694104D01*
X146903095Y-66694104D02*
X146855476Y-66598866D01*
X146855476Y-66598866D02*
X146807857Y-66551247D01*
X146807857Y-66551247D02*
X146712619Y-66503628D01*
X146712619Y-66503628D02*
X146522143Y-66456009D01*
X146522143Y-66456009D02*
X146426905Y-66408390D01*
X146426905Y-66408390D02*
X146379286Y-66360771D01*
X146379286Y-66360771D02*
X146331667Y-66265533D01*
X146331667Y-66265533D02*
X146331667Y-66170295D01*
X146331667Y-66170295D02*
X146379286Y-66075057D01*
X146379286Y-66075057D02*
X146426905Y-66027438D01*
X146426905Y-66027438D02*
X146522143Y-65979819D01*
X146522143Y-65979819D02*
X146760238Y-65979819D01*
X146760238Y-65979819D02*
X146903095Y-66027438D01*
X147236429Y-65979819D02*
X147474524Y-66979819D01*
X147474524Y-66979819D02*
X147665000Y-66265533D01*
X147665000Y-66265533D02*
X147855476Y-66979819D01*
X147855476Y-66979819D02*
X148093572Y-65979819D01*
X148998333Y-66979819D02*
X148426905Y-66979819D01*
X148712619Y-66979819D02*
X148712619Y-65979819D01*
X148712619Y-65979819D02*
X148617381Y-66122676D01*
X148617381Y-66122676D02*
X148522143Y-66217914D01*
X148522143Y-66217914D02*
X148426905Y-66265533D01*
X156848333Y-70434580D02*
X156800714Y-70482200D01*
X156800714Y-70482200D02*
X156657857Y-70529819D01*
X156657857Y-70529819D02*
X156562619Y-70529819D01*
X156562619Y-70529819D02*
X156419762Y-70482200D01*
X156419762Y-70482200D02*
X156324524Y-70386961D01*
X156324524Y-70386961D02*
X156276905Y-70291723D01*
X156276905Y-70291723D02*
X156229286Y-70101247D01*
X156229286Y-70101247D02*
X156229286Y-69958390D01*
X156229286Y-69958390D02*
X156276905Y-69767914D01*
X156276905Y-69767914D02*
X156324524Y-69672676D01*
X156324524Y-69672676D02*
X156419762Y-69577438D01*
X156419762Y-69577438D02*
X156562619Y-69529819D01*
X156562619Y-69529819D02*
X156657857Y-69529819D01*
X156657857Y-69529819D02*
X156800714Y-69577438D01*
X156800714Y-69577438D02*
X156848333Y-69625057D01*
X157229286Y-69625057D02*
X157276905Y-69577438D01*
X157276905Y-69577438D02*
X157372143Y-69529819D01*
X157372143Y-69529819D02*
X157610238Y-69529819D01*
X157610238Y-69529819D02*
X157705476Y-69577438D01*
X157705476Y-69577438D02*
X157753095Y-69625057D01*
X157753095Y-69625057D02*
X157800714Y-69720295D01*
X157800714Y-69720295D02*
X157800714Y-69815533D01*
X157800714Y-69815533D02*
X157753095Y-69958390D01*
X157753095Y-69958390D02*
X157181667Y-70529819D01*
X157181667Y-70529819D02*
X157800714Y-70529819D01*
%TO.C,D2*%
D11*
X148730000Y-108500000D02*
G75*
G02*
X143730000Y-108500000I-2500000J0D01*
G01*
X143730000Y-108500000D02*
G75*
G02*
X148730000Y-108500000I2500000J0D01*
G01*
X149220000Y-108500000D02*
G75*
G02*
X143670000Y-110044830I-2990000J0D01*
G01*
X143670000Y-106955170D02*
G75*
G02*
X149220000Y-108500000I2560000J-1544830D01*
G01*
X143670000Y-106955000D02*
X143670000Y-110045000D01*
%TO.C,D3*%
X148730000Y-115970000D02*
G75*
G02*
X143730000Y-115970000I-2500000J0D01*
G01*
X143730000Y-115970000D02*
G75*
G02*
X148730000Y-115970000I2500000J0D01*
G01*
X149220000Y-115970000D02*
G75*
G02*
X143670000Y-117514830I-2990000J0D01*
G01*
X143670000Y-114425170D02*
G75*
G02*
X149220000Y-115970000I2560000J-1544830D01*
G01*
X143670000Y-114425000D02*
X143670000Y-117515000D01*
%TO.C,R3*%
X158630000Y-108160000D02*
X158630000Y-107830000D01*
X158630000Y-105420000D02*
X158630000Y-105750000D01*
X152090000Y-108160000D02*
X158630000Y-108160000D01*
X152090000Y-107830000D02*
X152090000Y-108160000D01*
X152090000Y-105750000D02*
X152090000Y-105420000D01*
X152090000Y-105420000D02*
X158630000Y-105420000D01*
%TO.C,R4*%
X158630000Y-112210000D02*
X158630000Y-111880000D01*
X158630000Y-109470000D02*
X158630000Y-109800000D01*
X152090000Y-112210000D02*
X158630000Y-112210000D01*
X152090000Y-111880000D02*
X152090000Y-112210000D01*
X152090000Y-109800000D02*
X152090000Y-109470000D01*
X152090000Y-109470000D02*
X158630000Y-109470000D01*
%TO.C,D1*%
X163855000Y-101415000D02*
G75*
G02*
X158855000Y-101415000I-2500000J0D01*
G01*
X158855000Y-101415000D02*
G75*
G02*
X163855000Y-101415000I2500000J0D01*
G01*
X164345000Y-101415000D02*
G75*
G02*
X158795000Y-102959830I-2990000J0D01*
G01*
X158795000Y-99870170D02*
G75*
G02*
X164345000Y-101415000I2560000J-1544830D01*
G01*
X158795000Y-99870000D02*
X158795000Y-102960000D01*
%TO.C,J1*%
X164805000Y-110195000D02*
X164805000Y-112845000D01*
X162045000Y-112845000D02*
X164805000Y-112845000D01*
X162045000Y-110195000D02*
X164805000Y-110195000D01*
X162045000Y-110195000D02*
X162045000Y-112845000D01*
X162045000Y-108925000D02*
X162045000Y-107545000D01*
X162045000Y-107545000D02*
X163425000Y-107545000D01*
%TO.C,SW2*%
X144165000Y-78575000D02*
X144165000Y-80075000D01*
X145415000Y-82575000D02*
X149915000Y-82575000D01*
X149915000Y-76075000D02*
X145415000Y-76075000D01*
X151165000Y-80075000D02*
X151165000Y-78575000D01*
%TO.C,C1*%
X154395000Y-67155000D02*
X159635000Y-67155000D01*
X154395000Y-67492000D02*
X154395000Y-67155000D01*
X154395000Y-69895000D02*
X154395000Y-69558000D01*
X159635000Y-67155000D02*
X159635000Y-67492000D01*
X159635000Y-69558000D02*
X159635000Y-69895000D01*
X159635000Y-69895000D02*
X154395000Y-69895000D01*
%TO.C,U1*%
X126735000Y-67225000D02*
X126735000Y-118145000D01*
X126735000Y-118145000D02*
X139655000Y-118145000D01*
X132195000Y-67225000D02*
X126735000Y-67225000D01*
X139655000Y-67225000D02*
X134195000Y-67225000D01*
X139655000Y-118145000D02*
X139655000Y-67225000D01*
X134195000Y-67225000D02*
G75*
G02*
X132195000Y-67225000I-1000000J0D01*
G01*
%TO.C,R2*%
X155055000Y-94115000D02*
X161595000Y-94115000D01*
X155055000Y-94445000D02*
X155055000Y-94115000D01*
X155055000Y-96525000D02*
X155055000Y-96855000D01*
X155055000Y-96855000D02*
X161595000Y-96855000D01*
X161595000Y-94115000D02*
X161595000Y-94445000D01*
X161595000Y-96855000D02*
X161595000Y-96525000D01*
%TO.C,C4*%
X154395000Y-79305000D02*
X159635000Y-79305000D01*
X154395000Y-79642000D02*
X154395000Y-79305000D01*
X154395000Y-82045000D02*
X154395000Y-81708000D01*
X159635000Y-79305000D02*
X159635000Y-79642000D01*
X159635000Y-81708000D02*
X159635000Y-82045000D01*
X159635000Y-82045000D02*
X154395000Y-82045000D01*
%TO.C,R1*%
X155055000Y-90065000D02*
X161595000Y-90065000D01*
X155055000Y-90395000D02*
X155055000Y-90065000D01*
X155055000Y-92475000D02*
X155055000Y-92805000D01*
X155055000Y-92805000D02*
X161595000Y-92805000D01*
X161595000Y-90065000D02*
X161595000Y-90395000D01*
X161595000Y-92805000D02*
X161595000Y-92475000D01*
%TO.C,C3*%
X154395000Y-75255000D02*
X159635000Y-75255000D01*
X154395000Y-75592000D02*
X154395000Y-75255000D01*
X154395000Y-77995000D02*
X154395000Y-77658000D01*
X159635000Y-75255000D02*
X159635000Y-75592000D01*
X159635000Y-77658000D02*
X159635000Y-77995000D01*
X159635000Y-77995000D02*
X154395000Y-77995000D01*
%TO.C,SW3*%
X144165000Y-87125000D02*
X144165000Y-88625000D01*
X145415000Y-91125000D02*
X149915000Y-91125000D01*
X149915000Y-84625000D02*
X145415000Y-84625000D01*
X151165000Y-88625000D02*
X151165000Y-87125000D01*
%TO.C,Y1*%
X156295000Y-83620000D02*
X162695000Y-83620000D01*
X162695000Y-88490000D02*
X156295000Y-88490000D01*
X156295000Y-88490000D02*
G75*
G02*
X156295000Y-83620000I0J2435000D01*
G01*
X162695000Y-83620000D02*
G75*
G02*
X162695000Y-88490000I0J-2435000D01*
G01*
%TO.C,SW4*%
X144165000Y-95675000D02*
X144165000Y-97175000D01*
X145415000Y-99675000D02*
X149915000Y-99675000D01*
X149915000Y-93175000D02*
X145415000Y-93175000D01*
X151165000Y-97175000D02*
X151165000Y-95675000D01*
%TO.C,SW1*%
X144165000Y-70025000D02*
X144165000Y-71525000D01*
X145415000Y-74025000D02*
X149915000Y-74025000D01*
X149915000Y-67525000D02*
X145415000Y-67525000D01*
X151165000Y-71525000D02*
X151165000Y-70025000D01*
%TO.C,C2*%
X154395000Y-71205000D02*
X159635000Y-71205000D01*
X154395000Y-71542000D02*
X154395000Y-71205000D01*
X154395000Y-73945000D02*
X154395000Y-73608000D01*
X159635000Y-71205000D02*
X159635000Y-71542000D01*
X159635000Y-73608000D02*
X159635000Y-73945000D01*
X159635000Y-73945000D02*
X154395000Y-73945000D01*
%TD*%
M02*
